<svg width="460" height="74" viewBox="0 0 460 74" fill="none" xmlns="http://www.w3.org/2000/svg">
<circle cx="50.5215" cy="15.5" r="13.5" stroke="#B184F9" stroke-opacity="0.45" stroke-width="4"/>
<circle cx="15.5" cy="15.5" r="13.5" transform="matrix(-1 0 0 1 424.394 0)" stroke="#B184F9" stroke-opacity="0.45" stroke-width="4"/>
<path d="M25.3345 4.31372L2.7071 26.9411M24.6274 27.6482L2 5.02083" stroke="#B184F9" stroke-opacity="0.45" stroke-width="4" stroke-linecap="round"/>
<path d="M434.08 4.31372L456.707 26.9411M434.787 27.6482L457.415 5.02083" stroke="#B184F9" stroke-opacity="0.45" stroke-width="4" stroke-linecap="round"/>
<path d="M75.639 31.4352C74.7748 30.7473 73.5166 30.8903 72.8287 31.7545C72.1408 32.6188 72.2838 33.877 73.1481 34.5648L75.639 31.4352ZM387.382 32.7884C387.265 31.6901 386.28 30.8944 385.182 31.0112L367.283 32.9154C366.185 33.0322 365.389 34.0173 365.506 35.1157C365.623 36.2141 366.608 37.0098 367.706 36.8929L383.616 35.2004L385.309 51.1106C385.426 52.2089 386.411 53.0046 387.509 52.8878C388.608 52.7709 389.403 51.7858 389.286 50.6874L387.382 32.7884ZM73.1481 34.5648C98.0929 54.4189 137.434 64.2222 170.224 69.1032C186.674 71.5518 201.58 72.7756 212.374 73.3874C217.772 73.6934 222.145 73.8465 225.171 73.9232C226.684 73.9615 227.861 73.9807 228.661 73.9903C229.062 73.9951 229.368 73.9976 229.575 73.9988C229.678 73.9994 229.757 73.9997 229.81 73.9998C229.837 73.9999 229.857 74 229.871 74C229.878 74 229.884 74 229.887 74C229.889 74 229.891 74 229.892 74C229.893 74 229.894 74 229.894 72C229.894 70 229.894 70 229.893 70C229.892 70 229.892 70 229.89 70C229.887 70 229.883 70 229.877 70C229.865 70 229.847 69.9999 229.822 69.9999C229.773 69.9997 229.698 69.9994 229.598 69.9988C229.399 69.9977 229.101 69.9953 228.71 69.9906C227.926 69.9812 226.767 69.9623 225.272 69.9245C222.283 69.8488 217.952 69.6972 212.6 69.3938C201.894 68.7869 187.113 67.5732 170.813 65.1468C138.103 60.2778 99.6942 50.5811 75.639 31.4352L73.1481 34.5648ZM229.894 72C229.894 74 229.894 74 229.896 74C229.897 74 229.898 74 229.9 74C229.905 74 229.911 74 229.919 74C229.934 74 229.958 73.9999 229.989 73.9998C230.05 73.9997 230.141 73.9994 230.26 73.9988C230.499 73.9976 230.853 73.9952 231.315 73.9904C232.238 73.9808 233.593 73.9616 235.327 73.9233C238.796 73.8468 243.781 73.6939 249.861 73.3881C262.017 72.7768 278.563 71.5538 296.107 69.1058C313.641 66.6593 332.232 62.9811 348.454 57.4395C364.618 51.9179 378.714 44.4529 386.949 34.2567L383.838 31.7433C376.323 41.0471 363.107 48.2071 347.161 53.6543C331.274 59.0814 312.959 62.7157 295.555 65.1442C278.161 67.5712 261.739 68.7857 249.66 69.3932C243.623 69.6968 238.675 69.8485 235.239 69.9243C233.521 69.9622 232.182 69.9811 231.273 69.9906C230.819 69.9953 230.472 69.9977 230.24 69.9988C230.124 69.9994 230.037 69.9997 229.979 69.9999C229.95 69.9999 229.928 70 229.914 70C229.907 70 229.901 70 229.898 70C229.896 70 229.895 70 229.894 70C229.894 70 229.894 70 229.894 72Z" fill="#B184F9" fill-opacity="0.45"/>
</svg>
